<svg width="132" height="132" viewBox="0 0 132 132" fill="none" xmlns="http://www.w3.org/2000/svg">
<g filter="url(#filter0_d_48_22)">
<rect x="8" y="5" width="116" height="116" rx="12" fill="#F9556E"/>
</g>
<path d="M85.996 69.3145C81.8026 69.3185 77.6967 70.5139 74.1565 72.7614C70.6164 75.009 67.7877 78.2161 66 82.0093C64.2123 78.2161 61.3836 75.009 57.8434 72.7614C54.3033 70.5139 50.1974 69.3185 46.004 69.3145H34.4274V71.4194C34.4274 83.6058 44.3417 93.5202 56.5282 93.5202H75.4718C87.6583 93.5202 97.5726 83.6058 97.5726 71.4194V69.3145H85.996ZM56.5282 89.3105C47.3747 89.3105 39.8048 82.4015 38.7602 73.5242H46.004C55.1576 73.5242 62.7275 80.4332 63.772 89.3105H56.5282ZM75.4718 89.3105H68.228C69.2725 80.4332 76.8424 73.5242 85.996 73.5242H93.2398C92.1952 82.4015 84.6253 89.3105 75.4718 89.3105Z" fill="white"/>
<path d="M54.5848 63.8911C54.9829 66.2581 56.1121 68.4411 57.814 70.1336L58.4306 70.7501H59.3024C61.7026 70.7568 64.0447 70.0117 66 68.6195C67.9551 70.0119 70.2972 70.7571 72.6975 70.7506H73.5693L74.1859 70.1342C75.8878 68.4416 77.0171 66.2586 77.4152 63.8916C79.7822 63.4935 81.9651 62.3643 83.6577 60.6624L84.2742 60.0458V59.174C84.281 56.7736 83.5359 54.4313 82.1435 52.4759C83.536 50.5207 84.2812 48.1786 84.2747 45.7783V44.9065L83.6582 44.2899C81.9657 42.588 79.7827 41.4588 77.4157 41.0607C77.0176 38.6937 75.8884 36.5107 74.1865 34.8181L73.5699 34.2017H72.6981C70.2976 34.1949 67.9553 34.94 66 36.3323C64.0448 34.9399 61.7027 34.1946 59.3024 34.2012H58.4306L57.814 34.8176C56.1121 36.5102 54.9829 38.6931 54.5848 41.0602C52.2177 41.4583 50.0348 42.5875 48.3422 44.2894L47.7257 44.906V45.7778C47.719 48.1782 48.464 50.5205 49.8564 52.4759C48.4639 54.4311 47.7187 56.7732 47.7252 59.1735V60.0453L48.3417 60.6619C50.0344 62.3639 52.2176 63.4931 54.5848 63.8911ZM54.0933 50.9876C52.9259 49.8273 52.1843 48.307 51.9884 46.6727C53.2825 45.6552 54.882 45.1042 56.5282 45.109H58.633V43.0041C58.6283 41.3581 59.1791 39.7587 60.1964 38.4648C61.8306 38.6606 63.351 39.4022 64.5113 40.5696L66 42.0569L67.4882 40.5687C68.6486 39.4013 70.1689 38.6597 71.8031 38.4638C72.8207 39.758 73.3717 41.3578 73.3669 43.0041V45.109H75.4717C77.1177 45.1042 78.7171 45.655 80.0111 46.6723C79.8152 48.3066 79.0736 49.8269 77.9062 50.9872L76.4189 52.4759L77.9073 53.9643C79.0747 55.1246 79.8163 56.6449 80.0121 58.2792C78.7179 59.2968 77.1181 59.8477 75.4717 59.8428H73.3669V61.9477C73.3716 63.5936 72.8208 65.193 71.8035 66.487C70.1693 66.2911 68.6489 65.5495 67.4886 64.3822L66 62.8948L64.5116 64.3827C63.3512 65.5501 61.8309 66.2917 60.1966 66.4875C59.1792 65.1934 58.6282 63.5938 58.633 61.9477V59.8428H56.5282C54.8822 59.8476 53.2828 59.2967 51.9888 58.2795C52.1847 56.6452 52.9263 55.1249 54.0937 53.9645L55.581 52.4759L54.0933 50.9876Z" fill="white"/>
<defs>
<filter id="filter0_d_48_22" x="0" y="0" width="132" height="132" filterUnits="userSpaceOnUse" color-interpolation-filters="sRGB">
<feFlood flood-opacity="0" result="BackgroundImageFix"/>
<feColorMatrix in="SourceAlpha" type="matrix" values="0 0 0 0 0 0 0 0 0 0 0 0 0 0 0 0 0 0 127 0" result="hardAlpha"/>
<feOffset dy="3"/>
<feGaussianBlur stdDeviation="4"/>
<feComposite in2="hardAlpha" operator="out"/>
<feColorMatrix type="matrix" values="0 0 0 0 0 0 0 0 0 0 0 0 0 0 0 0 0 0 0.1 0"/>
<feBlend mode="normal" in2="BackgroundImageFix" result="effect1_dropShadow_48_22"/>
<feBlend mode="normal" in="SourceGraphic" in2="effect1_dropShadow_48_22" result="shape"/>
</filter>
</defs>
</svg>
