<svg width="57" height="51" viewBox="0 0 57 51" fill="none" xmlns="http://www.w3.org/2000/svg">
<path d="M51.8034 5.40277C48.7815 2.34699 44.7758 0.481923 40.5098 0.144457C36.2437 -0.19301 31.9987 1.01938 28.5414 3.56262C24.9143 0.841608 20.3997 -0.392231 15.9068 0.109572C11.4139 0.611376 7.27629 2.81155 4.32731 6.26702C1.37833 9.7225 -0.163014 14.1766 0.0136704 18.7324C0.190355 23.2882 2.07194 27.6073 5.27953 30.8198L22.9825 48.7038C24.465 50.1753 26.4615 51 28.5414 51C30.6214 51 32.6179 50.1753 34.1004 48.7038L51.8034 30.8198C55.1318 27.4422 57 22.8735 57 18.1113C57 13.3491 55.1318 8.78041 51.8034 5.40277Z" fill="white"/>
<path d="M45.2621 10.9197C43.0884 8.70272 40.2071 7.34963 37.1386 7.1048C34.0701 6.85997 31.0166 7.73955 28.5298 9.58465C25.9208 7.61058 22.6735 6.71544 19.4417 7.07949C16.21 7.44355 13.2338 9.03975 11.1126 11.5467C8.99143 14.0536 7.88274 17.285 8.00983 20.5902C8.13692 23.8954 9.49034 27.0288 11.7976 29.3595L24.5313 42.3341C25.5976 43.4017 27.0337 44 28.5298 44C30.0259 44 31.462 43.4017 32.5283 42.3341L45.2621 29.3595C47.6562 26.9091 49 23.5945 49 20.1396C49 16.6847 47.6562 13.3701 45.2621 10.9197Z" fill="#F9556E"/>
</svg>
