<svg width="82" height="73" viewBox="0 0 82 73" fill="none" xmlns="http://www.w3.org/2000/svg">
<path d="M74.1498 7.73337C69.8244 3.35942 64.0907 0.689811 57.9845 0.206771C51.8782 -0.276269 45.802 1.45911 40.8534 5.09943C35.6617 1.20465 29.1996 -0.561428 22.7685 0.156839C16.3375 0.875105 10.4151 4.02436 6.19398 8.97043C1.9729 13.9165 -0.233334 20.292 0.0195674 26.813C0.272468 33.334 2.96572 39.5162 7.55696 44.1146L32.8965 69.7132C35.0184 71.8194 37.8762 72.9999 40.8534 72.9999C43.8305 72.9999 46.6883 71.8194 48.8102 69.7132L74.1498 44.1146C78.914 39.28 81.5881 32.7404 81.5881 25.924C81.5881 19.1076 78.914 12.568 74.1498 7.73337Z" fill="#F9556E"/>
<path d="M63.8945 16.4028C60.9257 13.347 56.9902 11.4819 52.7991 11.1445C48.6079 10.807 44.4373 12.0194 41.0407 14.5626C37.4772 11.8416 33.0419 10.6078 28.6277 11.1096C24.2136 11.6114 20.1486 13.8115 17.2514 17.267C14.3541 20.7225 12.8398 25.1766 13.0134 29.7324C13.187 34.2882 15.0356 38.6073 18.1869 41.8198L35.5793 59.7038C37.0357 61.1753 38.9973 62 41.0407 62C43.0842 62 45.0457 61.1753 46.5021 59.7038L63.8945 41.8198C67.1646 38.4422 69 33.8735 69 29.1113C69 24.3491 67.1646 19.7804 63.8945 16.4028Z" fill="white"/>
</svg>
