<svg width="27" height="26" viewBox="0 0 27 26" fill="none" xmlns="http://www.w3.org/2000/svg">
<path d="M15.95 21.6332C20.6009 21.6332 22.927 21.6332 24.3712 20.1878C25.8167 18.7435 25.8167 16.4175 25.8167 11.7666C25.8167 7.11567 25.8167 4.7896 24.3712 3.34537C22.927 1.8999 20.6009 1.8999 15.95 1.8999H11.0167C6.36579 1.8999 4.03972 1.8999 2.59549 3.34537C1.15002 4.7896 1.15002 7.11567 1.15002 11.7666C1.15002 16.4175 1.15002 18.7435 2.59549 20.1878C3.40086 20.9944 4.48002 21.3508 6.08336 21.5074" stroke="white" stroke-width="2" stroke-linecap="round" stroke-linejoin="round"/>
<path d="M15.95 21.6332C14.4256 21.6332 12.7458 22.2499 11.2128 23.0454C8.7486 24.3243 7.5165 24.9644 6.9097 24.5562C6.3029 24.1492 6.4176 22.885 6.64823 20.3579L6.70003 19.7832" stroke="white" stroke-width="2" stroke-linecap="round"/>
</svg>
