<svg width="132" height="132" viewBox="0 0 132 132" fill="none" xmlns="http://www.w3.org/2000/svg">
<g filter="url(#filter0_d_48_23)">
<rect x="8" y="5" width="116" height="116" rx="12" fill="#F9556E"/>
</g>
<path d="M82.8387 51.2548V72.5474C81.2336 71.6207 79.3676 71.2495 77.5301 71.4914C75.6925 71.7333 73.9862 72.5748 72.6756 73.8854C71.3651 75.1959 70.5236 76.9023 70.2817 78.7399C70.0398 80.5774 70.411 82.4434 71.3377 84.0485C72.2644 85.6536 73.6949 86.908 75.4072 87.6173C77.1196 88.3265 79.0181 88.4509 80.8083 87.9712C82.5985 87.4914 84.1804 86.4344 85.3087 84.964C86.4369 83.4935 87.0485 81.6919 87.0484 79.8385V37.4302C87.049 36.8899 86.9196 36.3573 86.6711 35.8774C86.4226 35.3976 86.0623 34.9846 85.6206 34.6734C85.1789 34.3621 84.6687 34.1617 84.1333 34.0891C83.5978 34.0165 83.0527 34.0738 82.5441 34.2561L55.6021 43.8795C54.949 44.1136 54.3841 44.5438 53.9848 45.1112C53.5854 45.6786 53.371 46.3555 53.371 47.0493V76.7528C51.7661 75.8262 49.9002 75.455 48.0629 75.6968C46.2255 75.9386 44.5192 76.7798 43.2086 78.0901C41.8981 79.4004 41.0564 81.1065 40.8142 82.9438C40.572 84.7811 40.9427 86.647 41.8689 88.2521C42.7952 89.8573 44.2251 91.112 45.9371 91.8217C47.649 92.5314 49.5473 92.6565 51.3375 92.1774C53.1277 91.6984 54.7099 90.6421 55.8387 89.1724C56.9675 87.7026 57.5798 85.9014 57.5807 84.0482V60.2761L82.8387 51.259V51.2548ZM82.8387 46.7841L57.5807 55.8013V47.6387L82.8387 38.6174V46.7799V46.7841ZM78.6291 75.6288C79.7455 75.6288 80.8163 76.0724 81.6057 76.8618C82.3952 77.6513 82.8387 78.722 82.8387 79.8385C82.8387 80.955 82.3952 82.0257 81.6057 82.8152C80.8163 83.6047 79.7455 84.0482 78.6291 84.0482C77.5126 84.0482 76.4418 83.6047 75.6524 82.8152C74.8629 82.0257 74.4194 80.955 74.4194 79.8385C74.4194 78.722 74.8629 77.6513 75.6524 76.8618C76.4418 76.0724 77.5126 75.6288 78.6291 75.6288ZM49.1613 79.8385C50.2778 79.8385 51.3485 80.282 52.138 81.0715C52.9275 81.861 53.371 82.9317 53.371 84.0482C53.371 85.1647 52.9275 86.2354 52.138 87.0249C51.3485 87.8144 50.2778 88.2579 49.1613 88.2579C48.0448 88.2579 46.9741 87.8144 46.1846 87.0249C45.3951 86.2354 44.9516 85.1647 44.9516 84.0482C44.9516 82.9317 45.3951 81.861 46.1846 81.0715C46.9741 80.282 48.0448 79.8385 49.1613 79.8385Z" fill="white"/>
<defs>
<filter id="filter0_d_48_23" x="0" y="0" width="132" height="132" filterUnits="userSpaceOnUse" color-interpolation-filters="sRGB">
<feFlood flood-opacity="0" result="BackgroundImageFix"/>
<feColorMatrix in="SourceAlpha" type="matrix" values="0 0 0 0 0 0 0 0 0 0 0 0 0 0 0 0 0 0 127 0" result="hardAlpha"/>
<feOffset dy="3"/>
<feGaussianBlur stdDeviation="4"/>
<feComposite in2="hardAlpha" operator="out"/>
<feColorMatrix type="matrix" values="0 0 0 0 0 0 0 0 0 0 0 0 0 0 0 0 0 0 0.1 0"/>
<feBlend mode="normal" in2="BackgroundImageFix" result="effect1_dropShadow_48_23"/>
<feBlend mode="normal" in="SourceGraphic" in2="effect1_dropShadow_48_23" result="shape"/>
</filter>
</defs>
</svg>
