<svg width="132" height="132" viewBox="0 0 132 132" fill="none" xmlns="http://www.w3.org/2000/svg">
<g filter="url(#filter0_d_48_21)">
<rect x="8" y="5" width="116" height="116" rx="12" fill="#F9556E"/>
</g>
<g clip-path="url(#clip0_48_21)">
<path d="M95.3508 79.3709C95.3508 80.5184 94.895 81.6189 94.0836 82.4303C93.2722 83.2417 92.1717 83.6975 91.0242 83.6975H39.1048C37.9573 83.6975 36.8568 83.2417 36.0454 82.4303C35.2341 81.6189 34.7782 80.5184 34.7782 79.3709V53.4112C34.7782 52.2638 35.2341 51.1633 36.0454 50.3519C36.8568 49.5405 37.9573 49.0846 39.1048 49.0846H44.1756C47.6163 49.0828 50.9155 47.7148 53.348 45.2815L56.9391 41.6991C57.7482 40.8898 58.845 40.4339 59.9894 40.4314H70.131C71.2784 40.4317 72.3787 40.8877 73.1899 41.6991L76.7723 45.2815C77.9778 46.4874 79.4092 47.444 80.9845 48.0965C82.5598 48.7491 84.2483 49.0848 85.9534 49.0846H91.0242C92.1717 49.0846 93.2722 49.5405 94.0836 50.3519C94.895 51.1633 95.3508 52.2638 95.3508 53.4112V79.3709ZM39.1048 44.758C36.8098 44.758 34.6089 45.6697 32.9861 47.2925C31.3633 48.9153 30.4516 51.1163 30.4516 53.4112V79.3709C30.4516 81.6659 31.3633 83.8669 32.9861 85.4897C34.6089 87.1125 36.8098 88.0242 39.1048 88.0242H91.0242C93.3192 88.0242 95.5201 87.1125 97.1429 85.4897C98.7657 83.8669 99.6774 81.6659 99.6774 79.3709V53.4112C99.6774 51.1163 98.7657 48.9153 97.1429 47.2925C95.5201 45.6697 93.3192 44.758 91.0242 44.758H85.9534C83.6586 44.7575 81.458 43.8455 79.8356 42.2226L76.2531 38.6402C74.6307 37.0173 72.4301 36.1053 70.1353 36.1048H59.9937C57.6989 36.1053 55.4983 37.0173 53.8759 38.6402L50.2934 42.2226C48.671 43.8455 46.4704 44.7575 44.1756 44.758H39.1048Z" fill="white"/>
<path d="M65.0645 75.0443C62.1958 75.0443 59.4446 73.9047 57.4161 71.8762C55.3876 69.8478 54.248 67.0965 54.248 64.2278C54.248 61.3591 55.3876 58.6079 57.4161 56.5794C59.4446 54.5509 62.1958 53.4113 65.0645 53.4113C67.9332 53.4113 70.6845 54.5509 72.7129 56.5794C74.7414 58.6079 75.881 61.3591 75.881 64.2278C75.881 67.0965 74.7414 69.8478 72.7129 71.8762C70.6845 73.9047 67.9332 75.0443 65.0645 75.0443ZM65.0645 79.3709C69.0807 79.3709 72.9324 77.7755 75.7723 74.9356C78.6122 72.0957 80.2076 68.244 80.2076 64.2278C80.2076 60.2116 78.6122 56.3599 75.7723 53.52C72.9324 50.6801 69.0807 49.0847 65.0645 49.0847C61.0483 49.0847 57.1966 50.6801 54.3567 53.52C51.5168 56.3599 49.9214 60.2116 49.9214 64.2278C49.9214 68.244 51.5168 72.0957 54.3567 74.9356C57.1966 77.7755 61.0483 79.3709 65.0645 79.3709ZM43.4314 55.5746C43.4314 56.1483 43.2035 56.6986 42.7978 57.1043C42.3921 57.51 41.8419 57.7379 41.2681 57.7379C40.6944 57.7379 40.1441 57.51 39.7384 57.1043C39.3327 56.6986 39.1048 56.1483 39.1048 55.5746C39.1048 55.0008 39.3327 54.4506 39.7384 54.0449C40.1441 53.6392 40.6944 53.4113 41.2681 53.4113C41.8419 53.4113 42.3921 53.6392 42.7978 54.0449C43.2035 54.4506 43.4314 55.0008 43.4314 55.5746Z" fill="white"/>
</g>
<defs>
<filter id="filter0_d_48_21" x="0" y="0" width="132" height="132" filterUnits="userSpaceOnUse" color-interpolation-filters="sRGB">
<feFlood flood-opacity="0" result="BackgroundImageFix"/>
<feColorMatrix in="SourceAlpha" type="matrix" values="0 0 0 0 0 0 0 0 0 0 0 0 0 0 0 0 0 0 127 0" result="hardAlpha"/>
<feOffset dy="3"/>
<feGaussianBlur stdDeviation="4"/>
<feComposite in2="hardAlpha" operator="out"/>
<feColorMatrix type="matrix" values="0 0 0 0 0 0 0 0 0 0 0 0 0 0 0 0 0 0 0.1 0"/>
<feBlend mode="normal" in2="BackgroundImageFix" result="effect1_dropShadow_48_21"/>
<feBlend mode="normal" in="SourceGraphic" in2="effect1_dropShadow_48_21" result="shape"/>
</filter>
<clipPath id="clip0_48_21">
<rect width="69.2258" height="69.2258" fill="white" transform="translate(30.4516 27.4516)"/>
</clipPath>
</defs>
</svg>
