<svg width="26" height="26" viewBox="0 0 26 26" fill="none" xmlns="http://www.w3.org/2000/svg">
<path d="M25.0404 23.2796L20.44 18.7164C22.2257 16.4899 23.0905 13.6638 22.8565 10.8192C22.6226 7.97467 21.3076 5.32786 19.1821 3.42305C17.0565 1.51824 14.2819 0.500206 11.4288 0.578277C8.57574 0.656348 5.86099 1.82459 3.84279 3.84279C1.82459 5.86099 0.656348 8.57574 0.578277 11.4288C0.500206 14.2819 1.51824 17.0565 3.42305 19.1821C5.32786 21.3076 7.97467 22.6226 10.8192 22.8565C13.6638 23.0905 16.4899 22.2257 18.7164 20.44L23.2796 25.0032C23.3949 25.1194 23.532 25.2117 23.6831 25.2746C23.8342 25.3376 23.9963 25.37 24.16 25.37C24.3237 25.37 24.4858 25.3376 24.6369 25.2746C24.788 25.2117 24.9251 25.1194 25.0404 25.0032C25.2639 24.772 25.3888 24.463 25.3888 24.1414C25.3888 23.8198 25.2639 23.5108 25.0404 23.2796ZM11.76 20.44C10.0433 20.44 8.36508 19.9309 6.93766 18.9772C5.51024 18.0234 4.39771 16.6678 3.74074 15.0817C3.08377 13.4956 2.91188 11.7504 3.2468 10.0666C3.58172 8.38287 4.40841 6.83625 5.62233 5.62233C6.83625 4.40841 8.38287 3.58172 10.0666 3.2468C11.7504 2.91188 13.4956 3.08377 15.0817 3.74074C16.6678 4.39771 18.0234 5.51025 18.9772 6.93766C19.9309 8.36508 20.44 10.0433 20.44 11.76C20.44 14.0621 19.5255 16.2699 17.8977 17.8977C16.2699 19.5255 14.0621 20.44 11.76 20.44Z" fill="white"/>
</svg>
